<svg xmlns="http://www.w3.org/2000/svg" width="1280" height="640" viewBox="0 0 1280 640" role="img" aria-labelledby="title desc">
  <title id="title">Logic Lyrics — Project Notes Studio for macOS</title>
  <desc id="desc">A restrained dark banner with the Logic Lyrics waveform mark and product description.</desc>
  <defs>
    <radialGradient id="glow" cx="72%" cy="18%" r="70%">
      <stop offset="0" stop-color="#b7a9f0" stop-opacity=".18"/>
      <stop offset=".55" stop-color="#89bdc7" stop-opacity=".06"/>
      <stop offset="1" stop-color="#0b0b0d" stop-opacity="0"/>
    </radialGradient>
    <linearGradient id="mark" x1="0" y1="0" x2="1" y2="1">
      <stop offset="0" stop-color="#f8f7f4"/>
      <stop offset="1" stop-color="#c9c5ce"/>
    </linearGradient>
  </defs>
  <rect width="1280" height="640" fill="#0b0b0d"/>
  <rect width="1280" height="640" fill="url(#glow)"/>
  <path d="M0 590 C260 540 400 630 660 565 S1060 520 1280 575" fill="none" stroke="#fff" stroke-opacity=".055" stroke-width="1.5"/>
  <g transform="translate(830 144)">
    <rect width="310" height="310" rx="74" fill="#17171a" stroke="#34343a" stroke-width="2"/>
    <path d="M82 89 H56 V221 H82 M228 89 H254 V221 H228 M56 155 H116 C135 155 140 116 160 116 C182 116 184 197 208 197 C226 197 230 155 254 155" fill="none" stroke="url(#mark)" stroke-width="16" stroke-linecap="round" stroke-linejoin="round"/>
  </g>
  <g transform="translate(112 125)">
    <text x="0" y="30" fill="#aaa8ae" font-family="-apple-system, BlinkMacSystemFont, 'Segoe UI', sans-serif" font-size="18" font-weight="700" letter-spacing="3.4">NATIVE macOS · LOCAL-FIRST</text>
    <text x="0" y="118" fill="#f4f3f1" font-family="-apple-system, BlinkMacSystemFont, 'Segoe UI', sans-serif" font-size="74" font-weight="750" letter-spacing="-4">Logic Lyrics</text>
    <text x="0" y="180" fill="#f4f3f1" font-family="-apple-system, BlinkMacSystemFont, 'Segoe UI', sans-serif" font-size="39" font-weight="540" letter-spacing="-1.5">Project Notes Studio</text>
    <text x="0" y="252" fill="#aaa8ae" font-family="-apple-system, BlinkMacSystemFont, 'Segoe UI', sans-serif" font-size="24">Logic Pro lyrics · Suno prompts · audio metadata</text>
    <g transform="translate(0 326)">
      <rect width="205" height="50" rx="13" fill="#f4f3f1"/>
      <text x="102.5" y="32" text-anchor="middle" fill="#0b0b0d" font-family="-apple-system, BlinkMacSystemFont, 'Segoe UI', sans-serif" font-size="16" font-weight="750">Download for macOS</text>
    </g>
  </g>
  <text x="1168" y="572" text-anchor="end" fill="#77757e" font-family="ui-monospace, Menlo, monospace" font-size="15">github.com/syb-illin/LogicLyrics</text>
</svg>
